<svg width="430" height="468" viewBox="0 0 430 468" fill="none" xmlns="http://www.w3.org/2000/svg">
<path opacity="0.1" d="M215 0C344.145 0 449 104.855 449 234C449 363.145 344.145 468 215 468C85.8554 468 -19 363.145 -19 234C-19 104.855 85.8554 0 215 0Z" fill="url(#paint0_linear_272_832)"/>
<path opacity="0.2" d="M215 48C317.653 48 401 131.347 401 234C401 336.653 317.653 420 215 420C112.347 420 29 336.653 29 234C29 131.347 112.347 48 215 48Z" fill="url(#paint1_linear_272_832)"/>
<path opacity="0.4" d="M215 95C291.714 95 354 157.286 354 234C354 310.714 291.714 373 215 373C138.286 373 76 310.714 76 234C76 157.286 138.286 95 215 95Z" fill="url(#paint2_linear_272_832)"/>
<path opacity="0.6" d="M215 140C266.879 140 309 182.121 309 234C309 285.879 266.879 328 215 328C163.121 328 121 285.879 121 234C121 182.121 163.121 140 215 140Z" fill="url(#paint3_linear_272_832)"/>
<path d="M167.002 201.017L223.016 180.383C224.139 180.009 225.335 179.907 226.506 180.086C227.676 180.265 228.787 180.719 229.747 181.411C230.708 182.104 231.49 183.015 232.029 184.068C232.568 185.122 232.85 186.289 232.85 187.473V201.017H167.002ZM247.998 201.017H167.002V208.49C166.906 216.303 169.787 223.86 175.06 229.627C177.671 232.427 180.837 234.654 184.355 236.165C187.874 237.676 191.669 238.438 195.498 238.403C199.427 238.405 203.317 237.633 206.948 236.131C210.578 234.629 213.877 232.425 216.655 229.647C219.433 226.869 221.636 223.57 223.138 219.94C224.641 216.31 225.412 212.419 225.41 208.49C225.406 216.418 228.551 224.022 234.153 229.631C239.755 235.241 247.355 238.396 255.282 238.402C247.361 238.408 239.766 241.557 234.165 247.158C228.564 252.759 225.415 260.354 225.41 268.275C225.408 264.349 224.632 260.462 223.128 256.836C221.623 253.21 219.419 249.916 216.642 247.142C213.864 244.368 210.567 242.169 206.939 240.669C203.311 239.169 199.423 238.4 195.498 238.403C178.971 238.403 167.002 251.763 167.002 268.275V275.748H247.806C251.77 275.748 255.572 274.174 258.375 271.371C261.178 268.568 262.752 264.766 262.752 260.802V215.964C262.752 212.033 261.203 208.261 258.443 205.464C255.682 202.667 251.93 201.069 248.001 201.017H247.998Z" fill="#FFC352"/>
<path d="M167.002 201.017L238.691 189.168C243.535 188.335 247.998 191.858 247.998 196.522V201.017H167.002Z" fill="#C58C37"/>
<defs>
<linearGradient id="paint0_linear_272_832" x1="28.9508" y1="385.525" x2="395.295" y2="103.574" gradientUnits="userSpaceOnUse">
<stop stop-color="#1C39BB"/>
<stop offset="1" stop-color="#CC3333"/>
</linearGradient>
<linearGradient id="paint1_linear_272_832" x1="67.1148" y1="354.443" x2="358.311" y2="130.328" gradientUnits="userSpaceOnUse">
<stop stop-color="#1C39BB"/>
<stop offset="1" stop-color="#CC3333"/>
</linearGradient>
<linearGradient id="paint2_linear_272_832" x1="104.484" y1="324.008" x2="322.098" y2="156.525" gradientUnits="userSpaceOnUse">
<stop stop-color="#1C39BB"/>
<stop offset="1" stop-color="#CC3333"/>
</linearGradient>
<linearGradient id="paint3_linear_272_832" x1="140.262" y1="294.869" x2="287.426" y2="181.607" gradientUnits="userSpaceOnUse">
<stop stop-color="#1C39BB"/>
<stop offset="1" stop-color="#CC3333"/>
</linearGradient>
</defs>
</svg>
